# xmcd
#
# Track frame offsets:
# 150
# 14677
# 50157
# 66770
# 83395
# 103235
# 120825
# 137095
# 153090
# 169860
# 183427
# 201620
# 215692
# 233755
# 255782
# 271320
# 286310
# 303687
# 317070
# 330597
#
# Disc length: 4611 seconds
#
#
# Revision: 0
# Processed by: cddbd v1.5.1PL0 Copyright (c) Steve Scherf et al.
# Submitted via: FreeRIP 2.70 
#
DISCID=1f120114
DTITLE=Várias Bandas de Forró - Só Forró ao Vivo
DYEAR=2002
DGENRE=Pop
TTITLE0=Quando você quiser voltar-mastruz com leite
TTITLE1=Saga de um vaqueiro-catuaba com amendoim
TTITLE2=Ligação errada-brasas do forró
TTITLE3=Amor de Anita-gaviões do forró
TTITLE4=Meu cenário-tareco e mariola-o filho do dono-catuaba com amendoim
TTITLE5=me manda embora-Ferro na boneca
TTITLE6=Vou largar esta mulher-mauricinhos do forró
TTITLE7=eu te amei-cueca branca
TTITLE8=porteiro ingrato-raízes do forró
TTITLE9=Chegando de mansinho-banda cheia de charme
TTITLE10=Foi trabalho, foi feitiço-só por causa de você-lavas de vulcão-mastruz com leite
TTITLE11=De olho na calcinha-amazan
TTITLE12=os cinco bichos que a mulher mais gosta-passe a mão no rabo dela-cavalo de pau
TTITLE13=O gemidinho-morar no caberé-o segredo da mulher-novinho da paraíba
TTITLE14=Foi bom te amar-canários do reino
TTITLE15=Como te queria-decepção-mel com terra
TTITLE16=Raízes do nordeste-no vôo da asa branca-Rita de cássia e redondo
TTITLE17=Minha pretinha-black banda
TTITLE18=Mesa de bar-banda água de cheiro
TTITLE19=Tô bebendo, tô pagando-cabra desmantelado-corno chorão-sirano e sirino
EXTD=
EXTT0=
EXTT1=
EXTT2=
EXTT3=
EXTT4=
EXTT5=
EXTT6=
EXTT7=
EXTT8=
EXTT9=
EXTT10=
EXTT11=
EXTT12=
EXTT13=
EXTT14=
EXTT15=
EXTT16=
EXTT17=
EXTT18=
EXTT19=
PLAYORDER=
